<svg width="24" height="24" viewBox="0 0 64 64" fill="none" xmlns="http://www.w3.org/2000/svg">
<path d="M28.2 6.77594V17.7279C28.2 18.5359 27.544 19.1839 26.744 19.1839C25.936 19.1839 25.288 18.5279 25.288 17.7279V6.71994C25.288 4.88794 24.056 4.33594 22.872 4.33594C21.688 4.33594 20.456 4.87994 20.456 6.71994V17.8959C20.456 18.6079 19.88 19.1839 19.168 19.1839H19C18.192 19.1839 17.544 18.5279 17.544 17.7279V6.77594C17.544 3.48794 12.864 3.60794 12.864 6.80794V17.4319C12.848 23.3359 14.256 24.8639 16.584 26.7039C18.456 28.1839 20.064 29.0319 20.064 32.7119V58.7119C20.064 60.2719 21.328 61.5359 22.888 61.5359C24.448 61.5359 25.712 60.2719 25.712 58.7119V32.7119C25.712 29.0399 27.312 28.1839 29.192 26.7039C31.52 24.8639 32.928 23.3359 32.912 17.4319V6.80794C32.912 3.59994 28.232 3.48794 28.232 6.77594H28.2Z" fill="currentColor"/>
<path d="M43.984 7.87993C42.96 11.2959 39.888 19.1359 39.12 26.0479C38.352 32.9519 41.928 35.2559 44.232 39.0879C46.536 42.9199 44.24 39.1039 44.248 39.1119L45.504 42.2719C45.512 42.2959 45.52 42.3119 45.52 42.3359V57.8319C45.52 59.8799 47.176 61.5359 49.224 61.5359H51.16V7.87993C51.16 3.78393 45.528 2.75993 43.992 7.87993H43.984Z" fill="currentColor"/>
</svg>
