<?xml version="1.0" encoding="UTF-8"?>
<svg xmlns="http://www.w3.org/2000/svg" version="1.1" viewBox="0 0 500 500">
  <defs>
    <style>
      .cls-1 {
        fill: #fefdfd;
      }

      .cls-2 {
        fill: #bf2231;
      }
    </style>
  </defs>
  <!-- Generator: Adobe Illustrator 28.7.1, SVG Export Plug-In . SVG Version: 1.2.0 Build 142)  -->
  <g>
    <g id="Layer_1">
      <rect class="cls-2" width="500" height="500"/>
      <path class="cls-1" d="M249.4,33.6c58.3,0,116.6.2,174.9-.1,20.4-.1,36.2,13.5,40.2,32.3.5,2.5.7,5.2.7,7.8,0,116.6,0,233.2.2,349.9,0,22.7-17.6,41.9-43.2,41.8-112.8-.5-225.6-.2-338.4-.2-4.4,0-8.8-.2-13.2-.1-16.5.1-36.7-14.8-37.3-38.2,0-2.9,0-5.9,0-8.8,0-114.3,0-228.6,0-342.8,0-10.4,2.8-19.6,9.5-27.5,8.3-9.7,18.8-14.1,31.7-14,58.3.2,116.6,0,174.9,0ZM457,249.9h0c0-52.7,0-105.5,0-158.2,0-7,0-14.1-.1-21.1-.2-8-3.2-14.7-9-20.3-6.7-6.5-14.8-9.2-23.9-9.2-19,0-38.1,0-57.1,0-97,0-193.9,0-290.9,0-21.1,0-34.3,12.3-34.4,32.4,0,116.9,0,233.8,0,350.7,0,3.5.3,7.1,1.2,10.4,3.8,14.4,18.1,22.7,32.7,22.6,115.7-.2,231.4-.1,347.1-.1,1.8,0,3.5.1,5.3,0,13-1.5,22.6-7.9,27.2-20.3,1.6-4.5,1.8-9.7,1.9-14.6.1-57.4,0-114.8,0-172.3Z"/>
      <path class="cls-2" d="M457,249.9c0,57.4,0,114.8,0,172.3,0,4.9-.2,10.1-1.9,14.6-4.5,12.4-14.2,18.8-27.2,20.3-1.7.2-3.5,0-5.3,0-115.7,0-231.4,0-347.1.1-14.6,0-28.9-8.3-32.7-22.6-.9-3.3-1.2-6.9-1.2-10.4,0-116.9,0-233.8,0-350.7,0-20.1,13.2-32.4,34.4-32.4,97,0,193.9,0,290.9,0,19,0,38.1,0,57.1,0,9.1,0,17.2,2.7,23.9,9.2,5.8,5.6,8.8,12.3,9,20.3.2,7,.1,14.1.1,21.1,0,52.7,0,105.5,0,158.2h0ZM293.1,306.7c0-3.3-.1-5.3,0-7.3,1.3-21.6,2.7-43.2,4-64.8.5-8.5.7-17,1.4-25.4,1.7-19.5,5.4-20.9,20.4-24.5,9.9-2.4,19.9-4.4,29.8-6.8,10.3-2.4,16.6-9.4,20.4-18.9,3-7.6,2.4-14.8-2.6-21.6-6.3-8.6-15.3-12.3-25.3-14.2-17.8-3.5-35.6-1.8-53.3-.1-4.7.4-7.3,3.2-7.3,7.2,0,4.2,3,7.2,8.1,7.2,5.3,0,10.5-.4,15.8-.6,9.3-.4,18.7-1.4,28-.9,5,.2,10.4,2,14.9,4.4,8.3,4.6,9,12.2,2.1,18.6-2.4,2.3-5.9,3.7-9.2,4.6-10.9,3-22,5.8-33,8.4-11.8,2.8-18.3,10.6-21.2,21.7-2.6,10.2-4,20.5-3.5,31.1.2,4.1.5,8.2.3,12.2-.7,22.2-1.5,44.5-2.3,66.7,0,.8-.6,1.6-.8,2.2h-56.9c2-2.6,2.7-4.8,4.1-5.2,3.8-1.3,8-1.8,11.9-3,2.4-.7,4.8-2,6.8-3.4,8.1-5.6,10.1-14,10.3-23.1.1-7-2.1-10.5-6.4-10.8-4.9-.3-7.3,3-7.4,10.4-.3,11.5-4.8,15.5-17.7,15,0-4.9,0-9.8,0-14.7,0-5.2,0-10.3,0-15.8,3.4,0,5.7,0,8,0,7.6.4,15.2,1,22.7,1.3,6.6.2,10.2-2.3,10.2-6.8,0-4.2-3.1-6.7-9.3-7-5.9-.3-11.7-.3-17.6-.6-4.6-.2-9.1-.6-13.6-.9v-9.9c25-5.6,36.6-25.7,39.9-47.4.5-3.4.3-7,.4-10.5,0-3-1.7-5.3-4.5-5.7-2.1-.3-4.9.2-6.4,1.5-1.4,1.3-1.9,4.1-2.1,6.3-1,11.3-3.9,21.9-10.9,31-4.1,5.4-9.3,9.3-17.2,9.9,0-4.9.1-9.2,0-13.6-.1-3,1-4.7,3.8-6.1,7-3.4,11.1-9.2,12.5-16.9,1.3-7.1,2.7-14.2,4.1-21.3,4.7,0,9.3,0,14,0,5.5,0,7.5-1.3,7.8-4.9.3-3.5-1.2-5.4-6.6-6.7-3.7-.9-7.5-1-11.3-1.5-19.2-2.8-38.4-3.4-57.7-.8-8.4,1.2-16.6,3-25,4.4-3.9.6-5.7,3-5.9,6.5-.2,3.4,3.7,6.4,8,6.1,6.8-.4,13.5-1.3,20.3-2-.7,4.2.6,16.2,3.5,20.6,4.6,7.2,9.4,14.6,18,17.5v19.6c-16.6-1-25.6-7.8-30-22.5-2-6.7-3.2-13.6-5-20.3-.4-1.4-1.2-3.1-2.3-3.8-5.6-3.4-10.7-.9-10,5.3,1,8.6,2.7,17.3,5.3,25.6,4.4,14.1,14.1,23.3,28.4,27.3,4.5,1.2,9,2.3,13.5,3.4v9.5c-3.6.2-6.7.3-9.9.5-10.5.6-21,1.1-31.5,2-4.9.4-7.6,3.6-7.2,7.1.4,4.1,3.8,6.4,9,6,8.2-.6,16.3-1.4,24.5-1.9,4.9-.3,9.8,0,15.1,0v31.6c-4.3-.8-8-1.2-11.6-2.1-5.1-1.3-8-4.5-7.7-10.2.1-2.6-.2-5.2-.8-7.8-.8-3.5-3-5.6-6.9-5.3-3.9.3-5.9,2.5-6.1,7.1-.3,7.1.6,14,3.6,20.5,1.4,3,3.4,4.7,6.7,6.1,6.5,2.9,13.2,4.2,20.1,5.2,1.2.2,2.1,2.1,3.1,3.2-1.2.9-2.3,2.2-3.6,2.5-2,.4-4.1.1-6.1.1-22.6,0-45.1,0-67.7,0-9.1,0-10.9,1.9-10.5,10.9.7,15,5.9,28.6,14.3,40.8,9.3,13.5,21.6,23.8,36.2,31.1,1.7.9,4.6,2.5,4.5,3.4-.5,3.3-.2,6.2,2.9,7.4,2.6,1,5.7,1,8.6,1,16.4,0,32.8,0,49.2,0,4.7,0,9.4,0,14.1,0,3.5,0,5.5-1.7,5.7-5.3,0-1.4,0-2.8,0-4.2,3-1.6,5.6-2.9,8.2-4.2,15.7-7.8,27.7-19.5,36.6-34.4,6.9-11.5,10.7-24,11.1-37.4.2-6.7-1.3-8.4-7.9-9.1-4-.4-8.1,0-13,0ZM358.4,195.5c-7.9,0-14.5,2.3-20.6,6-8.9,5.3-14.2,13.4-14.6,23.6-.9,22.8-.3,45.7,2.6,68.4,3.3,26.1,9.3,51.7,16.8,76.9.5,1.7.8,3.6,1.8,4.8,1,1.1,3.2,2.3,4.3,1.9,1.7-.5,3.7-2.2,4.1-3.8.5-2.1,0-4.6-.7-6.8-6.5-23.4-12.4-46.9-14.4-71.1-1.6-19.5-1.6-39.2-2-58.8-.2-10.7,5.7-18,14.9-22.9,2.8-1.5,5.8-2.8,8.6-4.4,1.8-1,3.6-2,5-3.4,3.3-3.4,1.6-9-3-10.3-1.1-.3-2.3-.2-2.8-.2ZM215.7,123.7c2.8.2,4.8.3,6.8.4,6.1.3,12.3.7,18.4.6,3.7,0,5.9-2.5,6.4-6.1.4-3.4-1.7-5.4-4.8-6.4-1.7-.5-3.4-.8-5.1-1-12.5-1.7-25-1.9-37.5-.2-4.9.7-9.9,1.1-14.7,2.2-3.6.8-5.1,4-4.5,7.4.6,3.2,3.6,5.6,6.9,5.4,9.6-.7,19.2-1.6,28-2.3Z"/>
      <path class="cls-1" d="M293.1,306.7c4.9,0,9-.3,13,0,6.5.7,8.1,2.4,7.9,9.1-.4,13.4-4.2,25.9-11.1,37.4-8.9,14.9-21,26.6-36.6,34.4-2.6,1.3-5.2,2.7-8.2,4.2,0,1.4,0,2.8,0,4.2-.2,3.5-2.2,5.2-5.7,5.3-4.7,0-9.4,0-14.1,0-16.4,0-32.8,0-49.2,0-2.9,0-6,0-8.6-1-3-1.2-3.4-4.1-2.9-7.4.1-.9-2.8-2.6-4.5-3.4-14.7-7.4-26.9-17.6-36.2-31.1-8.5-12.3-13.6-25.9-14.3-40.8-.4-8.9,1.4-10.8,10.5-10.9,22.6-.1,45.1,0,67.7,0,2.1,0,4.2.3,6.1-.1,1.3-.3,2.4-1.7,3.6-2.5-1-1.1-2-3-3.1-3.2-6.9-.9-13.6-2.3-20.1-5.2-3.2-1.5-5.2-3.1-6.7-6.1-3-6.5-3.9-13.4-3.6-20.5.2-4.6,2.2-6.8,6.1-7.1,3.9-.3,6.1,1.8,6.9,5.3.6,2.5.9,5.2.8,7.8-.3,5.7,2.6,8.8,7.7,10.2,3.6.9,7.3,1.4,11.6,2.1v-31.6c-5.3,0-10.2-.2-15.1,0-8.2.5-16.3,1.3-24.5,1.9-5.2.4-8.6-1.9-9-6-.3-3.5,2.4-6.7,7.2-7.1,10.5-.9,21-1.4,31.5-2,3.2-.2,6.3-.3,9.9-.5v-9.5c-4.6-1.1-9.1-2.1-13.5-3.4-14.3-4-24.1-13.2-28.4-27.3-2.6-8.3-4.3-17-5.3-25.6-.7-6.2,4.4-8.7,10-5.3,1.2.7,2,2.4,2.3,3.8,1.7,6.7,3,13.6,5,20.3,4.4,14.7,13.4,21.4,30,22.5v-19.6c-8.6-2.8-13.4-10.2-18-17.5-2.9-4.4-4.2-16.5-3.5-20.6-6.8.7-13.5,1.6-20.3,2-4.3.3-8.2-2.8-8-6.1.2-3.5,2-5.9,5.9-6.5,8.3-1.4,16.6-3.3,25-4.4,19.2-2.7,38.5-2,57.7.8,3.8.5,7.6.7,11.3,1.5,5.3,1.3,6.9,3.1,6.6,6.7-.3,3.6-2.3,4.9-7.8,4.9-4.6,0-9.3,0-14,0-1.4,7.2-2.8,14.3-4.1,21.3-1.5,7.7-5.5,13.5-12.5,16.9-2.8,1.4-3.9,3-3.8,6.1.2,4.3,0,8.7,0,13.6,7.9-.6,13-4.5,17.2-9.9,7-9.1,9.8-19.7,10.9-31,.2-2.2.6-4.9,2.1-6.3,1.4-1.3,4.3-1.8,6.4-1.5,2.8.4,4.5,2.6,4.5,5.7,0,3.5.1,7.1-.4,10.5-3.3,21.8-14.9,41.8-39.9,47.4v9.9c4.5.3,9,.7,13.6.9,5.9.3,11.7.3,17.6.6,6.2.3,9.3,2.8,9.3,7,0,4.5-3.6,7-10.2,6.8-7.6-.3-15.2-.9-22.7-1.3-2.3-.1-4.6,0-8,0,0,5.5,0,10.7,0,15.8,0,4.9,0,9.8,0,14.7,12.9.6,17.5-3.5,17.7-15,.2-7.4,2.6-10.8,7.4-10.4,4.3.3,6.5,3.8,6.4,10.8-.1,9.1-2.2,17.5-10.3,23.1-2.1,1.4-4.4,2.7-6.8,3.4-3.9,1.2-8,1.7-11.9,3-1.3.5-2.1,2.6-4.1,5.2h56.9c.2-.6.8-1.4.8-2.2.8-22.2,1.6-44.5,2.3-66.7.1-4.1-.2-8.2-.3-12.2-.5-10.6.9-20.9,3.5-31.1,2.8-11.1,9.4-19,21.2-21.7,11.1-2.6,22.1-5.4,33-8.4,3.3-.9,6.8-2.4,9.2-4.6,6.9-6.5,6.1-14.1-2.1-18.6-4.4-2.5-9.8-4.2-14.9-4.4-9.3-.4-18.7.6-28,.9-5.3.2-10.5.7-15.8.6-5.1,0-8.1-3-8.1-7.2,0-3.9,2.7-6.7,7.3-7.2,17.8-1.6,35.5-3.4,53.3.1,10,2,19,5.7,25.3,14.2,5,6.8,5.7,14,2.6,21.6-3.8,9.5-10.1,16.4-20.4,18.9-9.9,2.4-19.9,4.4-29.8,6.8-15.1,3.6-18.7,5-20.4,24.5-.8,8.4-.9,16.9-1.4,25.4-1.3,21.6-2.7,43.2-4,64.8-.1,2,0,4,0,7.3ZM224.5,323.1c0,10.8,0,20.5,0,30.1,0,4.4,0,8.8,0,13.2,0,7-2.2,10.2-6.7,10.4-4.7.2-7-3.3-7.1-10.8,0-3.2,0-6.4,0-9.7,0-9.4,0-18.8,0-28.1,0-1.4-.6-2.9-1.1-4.7-6.7,3.8-10,9.4-12.8,15.1-3.9,7.9-6.7,16.1-7.3,25.1-.3,4.2-3.2,6.8-6.6,6.8-4,0-6.8-2.9-7-7.5,0-.6,0-1.2,0-1.8.9-4.6,1.3-9.4,3-13.6,3.8-9.7,8.3-19.1,12.5-28.5h-56.5c0,2,0,3.5,0,5,0,1.2.1,2.4.4,3.5,4.7,18.3,14.5,33.1,30,44,18.9,13.2,39.8,18.6,63,16.2,17.1-1.8,32.1-8.1,45.8-18.1,3.4-2.5,4.8-5.2,4.8-9.5,0-11.7.4-23.4.5-35.2,0-1.9-.2-3.9-.3-6.1h-35.2c1.3,2.2,2.2,4,3.3,5.6,7.2,10.7,9.7,23,12.2,35.3.8,4-1.5,7.2-5,8.1-3.5.9-6.9-1-8.3-4.8-.5-1.3-.4-2.9-.8-4.3-1.6-5.9-2.8-12-4.9-17.7-2.7-7.4-6.2-14.4-16-18ZM229.6,157.1c-9.2-.4-18-.7-27.8.4,1.5,6.5,2.4,11.9,4.1,17.1,1,2.9,2.9,5.8,5,8.1,4.6,4.8,13.1,3.7,15.5-2.1,3-7.3,4.7-14.9,3.2-23.4ZM291.8,318.8c-.8,11.1-1.5,21.6-2.3,32.1,7.9-9.4,12.3-19.7,12.5-32.1h-10.2Z"/>
      <path class="cls-1" d="M358.4,195.5c.5,0,1.7,0,2.8.2,4.6,1.3,6.3,6.9,3,10.3-1.4,1.4-3.2,2.4-5,3.4-2.8,1.5-5.8,2.9-8.6,4.4-9.2,4.9-15.1,12.2-14.9,22.9.3,19.6.4,39.3,2,58.8,2,24.2,8,47.7,14.4,71.1.6,2.2,1.2,4.7.7,6.8-.4,1.6-2.4,3.3-4.1,3.8-1.2.4-3.3-.8-4.3-1.9-1.1-1.2-1.4-3.2-1.8-4.8-7.4-25.2-13.5-50.8-16.8-76.9-2.9-22.7-3.4-45.6-2.6-68.4.4-10.2,5.8-18.3,14.6-23.6,6.1-3.6,12.7-6,20.6-6Z"/>
      <path class="cls-1" d="M215.7,123.7c-8.9.7-18.5,1.6-28,2.3-3.3.3-6.3-2.2-6.9-5.4-.7-3.4.9-6.6,4.5-7.4,4.8-1.1,9.8-1.5,14.7-2.2,12.5-1.7,25-1.5,37.5.2,1.7.2,3.4.5,5.1,1,3.1.9,5.2,3,4.8,6.4-.4,3.6-2.7,6.1-6.4,6.1-6.1,0-12.3-.4-18.4-.6-2,0-4-.2-6.8-.4Z"/>
      <path class="cls-2" d="M224.5,323.1c9.7,3.6,13.2,10.6,16,18,2.1,5.7,3.4,11.8,4.9,17.7.4,1.4.3,3,.8,4.3,1.4,3.8,4.8,5.6,8.3,4.8,3.5-.9,5.8-4.1,5-8.1-2.5-12.3-5-24.6-12.2-35.3-1.1-1.7-2-3.5-3.3-5.6h35.2c.1,2.2.3,4.1.3,6.1-.2,11.7-.6,23.4-.5,35.2,0,4.3-1.4,7.1-4.8,9.5-13.7,10-28.7,16.3-45.8,18.1-23.2,2.4-44.1-2.9-63-16.2-15.5-10.8-25.3-25.7-30-44-.3-1.1-.4-2.3-.4-3.5,0-1.5,0-2.9,0-5h56.5c-4.2,9.4-8.6,18.8-12.5,28.5-1.7,4.3-2,9.1-3,13.6-.1.6,0,1.2,0,1.8.3,4.5,3,7.5,7,7.5,3.4,0,6.3-2.6,6.6-6.8.6-8.9,3.4-17.2,7.3-25.1,2.9-5.7,6.2-11.3,12.8-15.1.4,1.8,1,3.3,1.1,4.7,0,9.4,0,18.8,0,28.1,0,3.2,0,6.4,0,9.7,0,7.5,2.4,11,7.1,10.8,4.5-.2,6.6-3.4,6.7-10.4,0-4.4,0-8.8,0-13.2,0-9.6,0-19.3,0-30.1Z"/>
      <path class="cls-2" d="M229.6,157.1c1.5,8.5-.2,16.1-3.2,23.4-2.4,5.8-10.8,6.9-15.5,2.1-2.2-2.3-4.1-5.1-5-8.1-1.7-5.1-2.6-10.6-4.1-17.1,9.8-1.1,18.6-.8,27.8-.4Z"/>
      <path class="cls-2" d="M291.8,318.8h10.2c-.2,12.4-4.7,22.7-12.5,32.1.7-10.5,1.5-21,2.3-32.1Z"/>
    </g>
  </g>
</svg>